<?xml version="1.0" encoding="UTF-8" standalone="no"?>
<svg
   xmlns:dc="http://purl.org/dc/elements/1.1/"
   xmlns:cc="http://creativecommons.org/ns#"
   xmlns:rdf="http://www.w3.org/1999/02/22-rdf-syntax-ns#"
   xmlns:svg="http://www.w3.org/2000/svg"
   xmlns="http://www.w3.org/2000/svg"
   viewBox="0 0 161.33333 57.333332"
   height="57.333332"
   width="161.33333"
   xml:space="preserve"
   id="svg2"
   version="1.1"><metadata
     id="metadata8"><rdf:RDF><cc:Work
         rdf:about=""><dc:format>image/svg+xml</dc:format><dc:type
           rdf:resource="http://purl.org/dc/dcmitype/StillImage" /></cc:Work></rdf:RDF></metadata><defs
     id="defs6" /><g
     transform="matrix(1.3333333,0,0,-1.3333333,0,57.333333)"
     id="g10"><g
       transform="scale(0.1)"
       id="g12"><path
         id="path14"
         style="fill:#acb9b9;fill-opacity:1;fill-rule:nonzero;stroke:none"
         d="m 39.0938,420.543 1133.5362,-2.02 c 15.83,0 29.99,2.352 29.99,-31.597 L 1201.23,13.6328 H 10.4844 V 388.313 c 0,16.738 1.6211,32.23 28.6094,32.23" /><path
         id="path16"
         style="fill:#231f20;fill-opacity:1;fill-rule:nonzero;stroke:none"
         d="M 1182.54,425 H 27.4766 C 15.082,425 5,414.918 5,402.527 V 10.0664 C 5,7.26563 7.26953,5 10.0781,5 H 1199.92 c 2.81,0 5.08,2.26563 5.08,5.0664 V 402.527 C 1205,414.918 1194.92,425 1182.54,425 Z M 27.4766,414.848 H 1182.54 c 6.78,0 12.3,-5.524 12.3,-12.321 0,0 0,-157.902 0,-272.136 H 369.293 C 339.027,75.6836 280.723,38.5352 213.816,38.5352 146.895,38.5352 88.6094,75.6445 58.3672,130.391 H 15.1523 c 0,114.234 0,272.136 0,272.136 0,6.797 5.5313,12.321 12.3243,12.321" /><path
         id="path18"
         style="fill:#ffffff;fill-opacity:1;fill-rule:nonzero;stroke:none"
         d="M 350.23,229.551 C 350.277,154.258 289.262,93.1836 213.965,93.1367 138.664,93.0859 77.582,154.094 77.5352,229.387 c 0,0.054 0,0.109 0,0.164 -0.0508,75.304 60.9648,136.371 136.2658,136.418 75.304,0.043 136.39,-60.957 136.429,-136.25 0,-0.051 0,-0.11 0,-0.168" /><path
         id="path20"
         style="fill:#231f20;fill-opacity:1;fill-rule:nonzero;stroke:none"
         d="m 324.727,340.598 c 30.23,-30.239 45.351,-67.254 45.351,-111.047 0,-43.797 -14.859,-80.418 -44.574,-109.883 -31.543,-31.0157 -68.809,-46.5235 -111.82,-46.5235 -42.489,0 -79.114,15.3711 -109.86,46.1445 -30.7615,30.75 -46.1365,67.508 -46.1365,110.262 0,42.75 15.375,79.765 46.1365,111.047 29.969,30.246 66.598,45.359 109.86,45.359 43.796,0 80.804,-15.113 111.043,-45.359 z M 124.176,320.266 C 98.6133,294.441 85.8281,264.203 85.8281,229.512 c 0,-34.688 12.6563,-64.668 37.9489,-89.961 25.309,-25.293 55.422,-37.942 90.371,-37.942 34.95,0 65.325,12.778 91.149,38.332 24.512,23.731 36.773,53.575 36.773,89.571 0,35.718 -12.465,66.039 -37.379,90.941 -24.902,24.902 -55.082,37.36 -90.543,37.36 -35.46,0 -65.464,-12.52 -89.972,-37.547 z m 67.265,-75.496 c -3.902,8.515 -9.746,12.769 -17.55,12.769 -13.778,0 -20.668,-9.277 -20.668,-27.828 0,-18.559 6.89,-27.836 20.668,-27.836 9.109,0 15.605,4.52 19.507,13.574 l 19.114,-10.176 c -9.117,-16.171 -22.782,-24.277 -40.996,-24.277 -14.055,0 -25.309,4.317 -33.762,12.922 -8.465,8.621 -12.695,20.496 -12.695,35.633 0,14.883 4.367,26.687 13.082,35.437 8.714,8.746 19.586,13.117 32.597,13.117 19.266,0 33.047,-7.585 41.391,-22.75 z m 89.903,0 c -3.91,8.515 -9.645,12.769 -17.199,12.769 -14.055,0 -21.098,-9.277 -21.098,-27.828 0,-18.559 7.043,-27.836 21.098,-27.836 9.125,0 15.511,4.52 19.152,13.574 l 19.535,-10.176 c -9.094,-16.171 -22.738,-24.277 -40.93,-24.277 -14.031,0 -25.257,4.317 -33.711,12.922 -8.433,8.621 -12.664,20.496 -12.664,35.633 0,14.883 4.286,26.687 12.868,35.437 8.57,8.746 19.476,13.117 32.734,13.117 19.226,0 32.996,-7.585 41.305,-22.75 l -21.09,-10.585" /><path
         id="path22"
         style="fill:#ffffff;fill-opacity:1;fill-rule:nonzero;stroke:none"
         d="m 485.934,97.5195 c 3.152,0 6.043,-0.2734 8.648,-0.832 2.598,-0.5547 4.82,-1.4609 6.684,-2.7305 1.855,-1.2617 3.289,-2.9492 4.32,-5.0507 1.016,-2.1094 1.535,-4.6875 1.535,-7.793 0,-3.3399 -0.758,-6.1133 -2.281,-8.332 -1.52,-2.2344 -3.762,-4.0508 -6.738,-5.4766 4.093,-1.1719 7.152,-3.2227 9.168,-6.1719 2.023,-2.9297 3.035,-6.4844 3.035,-10.625 0,-3.3398 -0.657,-6.2305 -1.953,-8.6719 -1.301,-2.4414 -3.059,-4.4336 -5.25,-5.9765 -2.204,-1.5508 -4.719,-2.6953 -7.532,-3.4375 -2.824,-0.7422 -5.715,-1.1133 -8.695,-1.1133 h -32.164 v 66.2109 h 31.223 z m -1.856,-26.7773 c 2.594,0 4.735,0.625 6.406,1.8555 1.668,1.2304 2.504,3.2343 2.504,6.0078 0,1.539 -0.281,2.8125 -0.836,3.7968 -0.558,0.9883 -1.297,1.7579 -2.23,2.3165 -0.934,0.5546 -2,0.9453 -3.203,1.1523 -1.207,0.2148 -2.465,0.3203 -3.766,0.3203 H 469.309 V 70.7422 Z m 0.844,-28.1055 c 1.426,0 2.789,0.1367 4.086,0.4219 1.301,0.2812 2.449,0.75 3.441,1.3828 0.992,0.6563 1.781,1.5352 2.371,2.6484 0.594,1.1133 0.883,2.5391 0.883,4.2657 0,3.3906 -0.957,5.8242 -2.883,7.2773 -1.922,1.4453 -4.449,2.168 -7.613,2.168 H 469.309 V 42.6367 h 15.613" /><path
         id="path24"
         style="fill:#ffffff;fill-opacity:1;fill-rule:nonzero;stroke:none"
         d="m 512.871,97.5195 h 16.332 l 15.508,-26.1523 15.418,26.1523 h 16.234 L 551.777,56.7188 V 31.3086 h -14.593 v 25.7812 l -24.313,40.4297" /><path
         id="path26"
         style="fill:#ffffff;fill-opacity:1;fill-rule:nonzero;stroke:none"
         d="m 730.176,97.5195 27.668,-44.414 H 758 v 44.414 h 13.66 V 31.3086 h -14.57 l -27.559,44.3359 h -0.183 V 31.3086 h -13.664 v 66.2109 h 14.492" /><path
         id="path28"
         style="fill:#ffffff;fill-opacity:1;fill-rule:nonzero;stroke:none"
         d="m 826.953,79.8828 c -0.867,1.3945 -1.953,2.6172 -3.262,3.6719 -1.289,1.0469 -2.753,1.875 -4.394,2.4531 -1.641,0.5938 -3.359,0.8867 -5.149,0.8867 -3.277,0 -6.062,-0.6328 -8.355,-1.9062 -2.297,-1.2578 -4.145,-2.957 -5.559,-5.0938 -1.425,-2.1406 -2.461,-4.5625 -3.125,-7.2773 -0.644,-2.7149 -0.957,-5.5274 -0.957,-8.4375 0,-2.7852 0.313,-5.4883 0.957,-8.1055 0.664,-2.6367 1.7,-5 3.125,-7.0898 1.414,-2.1094 3.262,-3.7891 5.559,-5.0586 2.293,-1.2695 5.078,-1.9063 8.355,-1.9063 4.446,0 7.922,1.3594 10.434,4.086 2.508,2.7226 4.031,6.3086 4.59,10.7578 h 14.098 c -0.36,-4.1367 -1.329,-7.8867 -2.872,-11.2188 -1.543,-3.3593 -3.582,-6.1914 -6.121,-8.5547 -2.539,-2.3632 -5.507,-4.1523 -8.906,-5.3906 -3.398,-1.25 -7.148,-1.8633 -11.223,-1.8633 -5.078,0 -9.636,0.8789 -13.699,2.6446 -4.043,1.7578 -7.461,4.1992 -10.254,7.2851 -2.793,3.086 -4.922,6.7305 -6.406,10.8985 -1.484,4.1797 -2.246,8.6718 -2.246,13.5156 0,4.9414 0.762,9.5312 2.246,13.7695 1.484,4.2383 3.613,7.9414 6.406,11.0938 2.793,3.1523 6.211,5.625 10.254,7.4218 4.063,1.7969 8.621,2.6954 13.699,2.6954 3.645,0 7.102,-0.5274 10.344,-1.5821 3.242,-1.0547 6.153,-2.5898 8.711,-4.6093 2.578,-2 4.688,-4.4922 6.367,-7.461 1.66,-2.9687 2.715,-6.3867 3.145,-10.2148 h -14.102 c -0.234,1.6718 -0.8,3.2031 -1.66,4.5898" /><path
         id="path30"
         style="fill:#ffffff;fill-opacity:1;fill-rule:nonzero;stroke:none"
         d="m 988.555,97.5195 27.665,-44.414 h 0.16 v 44.414 h 13.66 V 31.3086 h -14.57 l -27.56,44.3359 h -0.176 V 31.3086 h -13.671 v 66.2109 h 14.492" /><path
         id="path32"
         style="fill:#ffffff;fill-opacity:1;fill-rule:nonzero;stroke:none"
         d="m 1071.41,97.5195 c 4.27,0 8.24,-0.6718 11.93,-2.0312 3.69,-1.3555 6.87,-3.4063 9.57,-6.125 2.69,-2.7149 4.8,-6.1211 6.31,-10.2031 1.52,-4.0821 2.28,-8.8672 2.28,-14.375 0,-4.8243 -0.62,-9.2657 -1.85,-13.3594 -1.25,-4.0625 -3.13,-7.5977 -5.63,-10.5664 -2.5,-2.9688 -5.63,-5.3008 -9.37,-7.0039 -3.75,-1.6992 -8.17,-2.5469 -13.24,-2.5469 h -28.61 v 66.2109 h 28.61 z m -1.02,-53.9453 c 2.1,0 4.14,0.3321 6.11,1.0156 1.98,0.6836 3.75,1.8047 5.3,3.3907 1.54,1.5703 2.79,3.6211 3.71,6.1523 0.93,2.5274 1.39,5.625 1.39,9.2656 0,3.3399 -0.32,6.3477 -0.96,9.0352 -0.66,2.6836 -1.72,4.9883 -3.21,6.9023 -1.48,1.9024 -3.45,3.3789 -5.89,4.3946 -2.45,1.0273 -5.46,1.5234 -9.05,1.5234 H 1057.4 V 43.5742 h 12.99 v 0" /><path
         id="path34"
         style="fill:#ffffff;fill-opacity:1;fill-rule:nonzero;stroke:none"
         d="m 883.008,275.188 c 0.058,-55.008 -44.512,-99.622 -99.531,-99.661 -55,-0.039 -99.629,44.516 -99.668,99.516 0,0.055 0,0.102 0,0.145 -0.039,55.007 44.531,99.621 99.531,99.667 55.019,0.032 99.629,-44.523 99.668,-99.519 0,-0.047 0,-0.102 0,-0.148" /><path
         id="path36"
         style="fill:#231f20;fill-opacity:1;fill-rule:nonzero;stroke:none"
         d="m 783.262,391.137 c 32.519,0 59.992,-11.203 82.441,-33.617 22.442,-22.422 33.672,-49.868 33.672,-82.332 0,-32.458 -11.035,-59.622 -33.086,-81.458 -23.418,-23 -51.101,-34.492 -83.027,-34.492 -31.532,0 -58.731,11.407 -81.563,34.207 -22.832,22.793 -34.25,50.051 -34.25,81.743 0,31.699 11.418,59.144 34.25,82.332 22.246,22.414 49.446,33.617 81.563,33.617 z m -89.727,-84.793 c -3.457,-9.789 -5.195,-20.172 -5.195,-31.156 0,-25.7 9.394,-47.918 28.164,-66.672 18.769,-18.731 41.125,-28.106 67.051,-28.106 25.925,0 48.476,9.465 67.629,28.399 6.414,6.203 11.707,12.961 15.847,20.285 l -43.718,19.461 c -2.961,-14.707 -16.079,-24.637 -31.907,-25.801 v -17.879 h -13.32 v 17.879 c -13.008,0.144 -25.586,5.469 -35.195,13.883 l 15.976,16.101 c 7.676,-7.238 15.371,-10.488 25.879,-10.488 6.797,0 14.336,2.664 14.336,11.523 0,3.141 -1.211,5.325 -3.125,6.969 l -11.055,4.91 -13.769,6.141 c -6.809,3.035 -12.578,5.59 -18.367,8.172 z m 90.02,63.926 c -26.328,0 -48.575,-9.274 -66.758,-27.829 -4.961,-5 -9.27,-10.214 -12.91,-15.664 l 44.316,-19.734 c 4.004,12.297 15.692,19.758 29.883,20.586 v 17.879 h 13.32 v -17.879 c 9.16,-0.441 19.219,-2.957 29.121,-10.633 l -15.234,-15.664 c -5.613,3.988 -12.715,6.793 -19.813,6.793 -5.761,0 -13.91,-1.762 -13.91,-9.008 0,-1.097 0.383,-2.07 1.047,-2.945 l 14.832,-6.586 10.031,-4.481 c 6.426,-2.863 12.559,-5.578 18.614,-8.285 l 59.433,-26.449 c 1.953,7.777 2.95,16.055 2.95,24.817 0,26.476 -9.297,48.894 -27.872,67.253 -18.386,18.555 -40.722,27.829 -67.05,27.829" /><path
         id="path38"
         style="fill:#ffffff;fill-opacity:1;fill-rule:nonzero;stroke:none"
         d="m 1151.68,275.188 c 0.05,-58.45 -47.3,-105.872 -105.76,-105.911 -58.459,-0.039 -105.893,47.305 -105.932,105.766 0,0.047 0,0.102 0,0.145 -0.039,58.449 47.317,105.871 105.772,105.917 58.46,0.047 105.88,-47.304 105.92,-105.757 0,-0.059 0,-0.102 0,-0.16" /><path
         id="path40"
         style="fill:#231f20;fill-opacity:1;fill-rule:nonzero;stroke:none"
         d="m 1044.18,391.137 c -32.12,0 -59.317,-11.196 -81.563,-33.617 -22.844,-23.188 -34.258,-50.625 -34.258,-82.332 0,-31.692 11.414,-58.938 34.258,-81.743 22.821,-22.8 50.023,-34.207 81.563,-34.207 31.93,0 59.6,11.504 83.02,34.492 22.05,21.836 33.09,49 33.09,81.458 0,32.48 -11.23,59.91 -33.67,82.332 -22.46,22.421 -49.94,33.617 -82.44,33.617 z m 0.28,-20.856 c 26.32,0 48.68,-9.285 67.06,-27.84 18.58,-18.355 27.86,-40.765 27.86,-67.253 0,-26.668 -9.09,-48.793 -27.27,-66.379 -19.17,-18.934 -41.72,-28.399 -67.65,-28.399 -25.92,0 -48.276,9.375 -67.046,28.125 -18.769,18.735 -28.156,40.961 -28.156,66.653 0,25.714 9.48,48.128 28.457,67.253 18.183,18.555 40.425,27.84 66.745,27.84" /><path
         id="path42"
         style="fill:#231f20;fill-opacity:1;fill-rule:nonzero;stroke:none"
         d="m 1088.14,302.676 h -84.29 v -19.965 h 84.29 z m 0,-37.27 h -84.29 v -19.961 h 84.29 v 19.961" /><path
         id="path44"
         style="fill:#ffffff;fill-opacity:1;fill-rule:nonzero;stroke:none"
         d="m 522.641,380.207 c 59.308,0 107.386,-48.074 107.386,-107.375 0,-59.309 -48.078,-107.383 -107.386,-107.383 -59.309,0 -107.387,48.074 -107.387,107.383 0,59.301 48.078,107.375 107.387,107.375" /><path
         id="path46"
         style="fill:#231f20;fill-opacity:1;fill-rule:nonzero;stroke:none"
         d="m 553.723,303.902 c 0,4.141 -3.364,7.485 -7.493,7.485 h -47.429 c -4.133,0 -7.492,-3.344 -7.492,-7.485 v -47.425 h 13.226 v -56.164 h 35.949 v 56.164 h 13.239 v 47.425 0" /><path
         id="path48"
         style="fill:#231f20;fill-opacity:1;fill-rule:nonzero;stroke:none"
         d="m 522.516,350.078 c 8.961,0 16.218,-7.265 16.218,-16.223 0,-8.957 -7.257,-16.218 -16.218,-16.218 -8.961,0 -16.223,7.261 -16.223,16.218 0,8.958 7.262,16.223 16.223,16.223" /><path
         id="path50"
         style="fill:#231f20;fill-opacity:1;fill-rule:nonzero;stroke:none"
         d="m 522.363,391.137 c -32.113,0 -59.304,-11.199 -81.558,-33.621 -22.836,-23.184 -34.246,-50.629 -34.246,-82.321 0,-31.683 11.41,-58.945 34.246,-81.75 22.84,-22.8 50.031,-34.195 81.558,-34.195 31.93,0 59.61,11.492 83.028,34.5 22.05,21.816 33.086,48.98 33.086,81.445 0,32.473 -11.219,59.903 -33.672,82.321 -22.446,22.422 -49.922,33.621 -82.442,33.621 z m 0.305,-20.864 c 26.316,0 48.656,-9.277 67.039,-27.828 18.586,-18.351 27.871,-40.773 27.871,-67.25 0,-26.664 -9.094,-48.8 -27.289,-66.386 -19.156,-18.926 -41.703,-28.399 -67.621,-28.399 -25.945,0 -48.293,9.375 -67.063,28.113 -18.769,18.747 -28.156,40.969 -28.156,66.672 0,25.703 9.485,48.121 28.446,67.25 18.199,18.551 40.453,27.828 66.773,27.828" /></g></g></svg>