<?xml version="1.0" encoding="UTF-8" standalone="no"?>
<svg
   xmlns:dc="http://purl.org/dc/elements/1.1/"
   xmlns:cc="http://creativecommons.org/ns#"
   xmlns:rdf="http://www.w3.org/1999/02/22-rdf-syntax-ns#"
   xmlns:svg="http://www.w3.org/2000/svg"
   xmlns="http://www.w3.org/2000/svg"
   viewBox="0 0 161.33333 57.333332"
   height="57.333332"
   width="161.33333"
   xml:space="preserve"
   id="svg2"
   version="1.1"><metadata
     id="metadata8"><rdf:RDF><cc:Work
         rdf:about=""><dc:format>image/svg+xml</dc:format><dc:type
           rdf:resource="http://purl.org/dc/dcmitype/StillImage" /></cc:Work></rdf:RDF></metadata><defs
     id="defs6" /><g
     transform="matrix(1.3333333,0,0,-1.3333333,0,57.333333)"
     id="g10"><g
       transform="scale(0.1)"
       id="g12"><path
         id="path14"
         style="fill:#acb9b9;fill-opacity:1;fill-rule:nonzero;stroke:none"
         d="M 39.0781,420.609 1172.62,418.594 c 15.84,0 30,2.347 30,-31.602 L 1201.23,13.6914 H 10.4727 V 388.379 c 0,16.742 1.6211,32.23 28.6054,32.23" /><path
         id="path16"
         style="fill:#ffffff;fill-opacity:1;fill-rule:nonzero;stroke:none"
         d="M 350.219,229.621 C 350.27,154.324 289.258,93.2422 213.957,93.2031 138.656,93.1523 77.5664,154.16 77.5234,229.453 c 0,0.059 0,0.11 0,0.168 -0.0429,75.297 60.9686,136.375 136.2656,136.418 75.313,0.047 136.391,-60.961 136.43,-136.254 0,-0.055 0,-0.105 0,-0.164" /><path
         id="path18"
         style="fill:#231f20;fill-opacity:1;fill-rule:nonzero;stroke:none"
         d="m 324.711,340.668 c 30.238,-30.234 45.355,-67.254 45.355,-111.047 0,-43.801 -14.855,-80.422 -44.574,-109.887 -31.531,-31.0231 -68.808,-46.5309 -111.808,-46.5309 -42.493,0 -79.118,15.3828 -109.875,46.1519 -30.7582,30.75 -46.1332,67.508 -46.1332,110.266 0,42.754 15.375,79.766 46.1332,111.047 29.976,30.246 66.601,45.363 109.875,45.363 43.789,0 80.793,-15.117 111.027,-45.363 z M 124.164,320.332 C 98.6055,294.516 85.8242,264.27 85.8242,229.582 c 0,-34.68 12.6524,-64.668 37.9488,-89.961 25.297,-25.297 55.422,-37.941 90.368,-37.941 34.945,0 65.324,12.773 91.14,38.332 24.52,23.726 36.782,53.582 36.782,89.57 0,35.723 -12.461,66.031 -37.372,90.941 -24.902,24.899 -55.082,37.352 -90.55,37.352 -35.469,0 -65.465,-12.516 -89.977,-37.543 z m 67.274,-75.496 c -3.911,8.519 -9.758,12.777 -17.551,12.777 -13.789,0 -20.68,-9.281 -20.68,-27.832 0,-18.558 6.891,-27.84 20.68,-27.84 9.101,0 15.605,4.524 19.504,13.567 L 212.5,205.344 c -9.105,-16.184 -22.773,-24.281 -40.992,-24.281 -14.051,0 -25.313,4.308 -33.762,12.921 -8.469,8.614 -12.691,20.496 -12.691,35.637 0,14.875 4.359,26.688 13.074,35.434 8.723,8.75 19.582,13.121 32.601,13.121 19.258,0 33.047,-7.586 41.391,-22.746 z m 89.902,0 c -3.914,8.519 -9.645,12.777 -17.199,12.777 -14.063,0 -21.098,-9.281 -21.098,-27.832 0,-18.558 7.035,-27.84 21.098,-27.84 9.117,0 15.504,4.524 19.144,13.567 l 19.535,-10.164 c -9.09,-16.184 -22.738,-24.281 -40.922,-24.281 -14.031,0 -25.265,4.308 -33.714,12.921 -8.434,8.614 -12.661,20.496 -12.661,35.637 0,14.875 4.29,26.688 12.868,35.434 8.566,8.75 19.476,13.121 32.734,13.121 19.223,0 32.992,-7.586 41.301,-22.746 L 281.34,244.836" /><path
         id="path20"
         style="fill:#231f20;fill-opacity:1;fill-rule:nonzero;stroke:none"
         d="M 1182.54,425 H 27.4727 C 15.082,425 5,414.926 5,402.539 V 10.0664 C 5,7.26563 7.27344,5 10.0742,5 H 1199.92 c 2.81,0 5.08,2.26563 5.08,5.0664 V 402.539 C 1205,414.926 1194.92,425 1182.54,425 Z M 27.4727,414.859 H 1182.54 c 6.78,0 12.3,-5.523 12.3,-12.32 0,0 0,-157.851 0,-272.09 H 369.277 C 339.02,75.7422 280.723,38.5938 213.813,38.5938 c -66.934,0 -125.2153,37.121 -155.4575,91.8552 H 15.1523 c 0,114.239 0,272.09 0,272.09 0,6.797 5.5274,12.32 12.3204,12.32" /><path
         id="path22"
         style="fill:#ffffff;fill-opacity:1;fill-rule:nonzero;stroke:none"
         d="m 604.961,97.5273 c 3.164,0 6.035,-0.2812 8.644,-0.8281 2.606,-0.5547 4.833,-1.4648 6.688,-2.7422 1.855,-1.2617 3.301,-2.9492 4.328,-5.0507 1.016,-2.0977 1.531,-4.6875 1.531,-7.793 0,-3.332 -0.761,-6.1133 -2.285,-8.332 -1.504,-2.2344 -3.762,-4.0508 -6.738,-5.4766 4.101,-1.1719 7.16,-3.2227 9.18,-6.1719 2.011,-2.9297 3.027,-6.4765 3.027,-10.625 0,-3.3398 -0.645,-6.2305 -1.953,-8.6719 -1.297,-2.4414 -3.059,-4.4336 -5.254,-5.9765 -2.195,-1.5508 -4.707,-2.6953 -7.52,-3.4375 -2.832,-0.7422 -5.722,-1.1133 -8.703,-1.1133 h -32.16 v 66.2187 h 31.215 z m -1.856,-26.7851 c 2.598,0 4.739,0.625 6.407,1.8555 1.679,1.2304 2.508,3.2343 2.508,6.0078 0,1.539 -0.282,2.8203 -0.829,3.7968 -0.566,0.9883 -1.308,1.7579 -2.234,2.3165 -0.93,0.5546 -2.004,0.9453 -3.203,1.1601 -1.203,0.2149 -2.461,0.3125 -3.762,0.3125 H 588.34 V 70.7422 Z m 0.852,-28.1055 c 1.426,0 2.781,0.1367 4.09,0.4219 1.289,0.2812 2.453,0.75 3.437,1.3945 0.996,0.6446 1.778,1.5235 2.371,2.6367 0.598,1.1133 0.879,2.5391 0.879,4.2657 0,3.3906 -0.957,5.8242 -2.879,7.2773 -1.914,1.4453 -4.453,2.1797 -7.617,2.1797 H 588.34 V 42.6367 h 15.617 v 0" /><path
         id="path24"
         style="fill:#ffffff;fill-opacity:1;fill-rule:nonzero;stroke:none"
         d="m 631.902,97.5273 h 16.34 l 15.508,-26.1484 15.41,26.1484 h 16.231 L 670.82,56.7188 V 31.3086 h -14.609 v 25.7812 l -24.309,40.4375" /><path
         id="path26"
         style="fill:#ffffff;fill-opacity:1;fill-rule:nonzero;stroke:none"
         d="m 869.336,97.5273 27.676,-44.4218 h 0.156 V 97.5273 H 910.82 V 31.3086 h -14.558 l -27.571,44.3359 h -0.175 V 31.3086 h -13.672 v 66.2187 h 14.492" /><path
         id="path28"
         style="fill:#ffffff;fill-opacity:1;fill-rule:nonzero;stroke:none"
         d="m 966.113,79.8828 c -0.859,1.4063 -1.953,2.6172 -3.254,3.6719 -1.296,1.0469 -2.761,1.875 -4.402,2.4609 -1.641,0.586 -3.359,0.8789 -5.137,0.8789 -3.281,0 -6.074,-0.6328 -8.359,-1.9062 -2.293,-1.2578 -4.141,-2.957 -5.566,-5.086 -1.426,-2.1367 -2.461,-4.5703 -3.118,-7.2851 -0.652,-2.7149 -0.964,-5.5274 -0.964,-8.4375 0,-2.7734 0.312,-5.4883 0.964,-8.1055 0.657,-2.6367 1.692,-5 3.118,-7.0898 1.425,-2.1094 3.273,-3.7891 5.566,-5.0586 2.285,-1.2695 5.078,-1.9063 8.359,-1.9063 4.434,0 7.918,1.3594 10.43,4.086 2.5,2.7226 4.031,6.3086 4.59,10.7578 h 14.101 c -0.371,-4.1367 -1.328,-7.8789 -2.871,-11.2188 -1.543,-3.3476 -3.593,-6.1914 -6.132,-8.5547 -2.532,-2.3632 -5.5,-4.1523 -8.907,-5.3906 -3.398,-1.25 -7.148,-1.8633 -11.211,-1.8633 -5.078,0 -9.648,0.8868 -13.699,2.6446 -4.055,1.7578 -7.473,4.1992 -10.266,7.2851 -2.792,3.086 -4.921,6.7305 -6.406,10.8985 -1.484,4.1797 -2.234,8.6718 -2.234,13.5156 0,4.9414 0.75,9.5312 2.234,13.7695 1.485,4.2461 3.614,7.9492 6.406,11.0938 2.793,3.164 6.211,5.6367 10.266,7.4218 4.051,1.7969 8.621,2.6954 13.699,2.6954 3.645,0 7.09,-0.5274 10.332,-1.5821 3.243,-1.0547 6.153,-2.5781 8.723,-4.5976 2.566,-2.0117 4.688,-4.5039 6.355,-7.4727 1.668,-2.9687 2.715,-6.375 3.157,-10.2148 h -14.106 c -0.242,1.6718 -0.808,3.2031 -1.668,4.5898" /><path
         id="path30"
         style="fill:#ffffff;fill-opacity:1;fill-rule:nonzero;stroke:none"
         d="m 1022.18,275.195 c 0.04,-55.007 -44.524,-99.629 -99.535,-99.668 -55.008,-0.039 -99.637,44.524 -99.665,99.524 0,0.054 0,0.101 0,0.144 -0.042,55.012 44.508,99.625 99.52,99.668 55.02,0.035 99.64,-44.519 99.68,-99.519 0,-0.047 0,-0.098 0,-0.149" /><path
         id="path32"
         style="fill:#231f20;fill-opacity:1;fill-rule:nonzero;stroke:none"
         d="m 922.434,391.148 c 32.5,0 59.988,-11.207 82.426,-33.621 22.45,-22.422 33.68,-49.867 33.68,-82.332 0,-32.465 -11.04,-59.621 -33.09,-81.465 -23.419,-22.988 -51.095,-34.48 -83.016,-34.48 -31.555,0 -58.743,11.395 -81.575,34.207 -22.832,22.793 -34.25,50.043 -34.25,81.738 0,31.7 11.418,59.145 34.25,82.332 22.254,22.414 49.454,33.621 81.575,33.621 z m -89.739,-84.8 c -3.457,-9.785 -5.175,-20.164 -5.175,-31.153 0,-25.703 9.375,-47.922 28.144,-66.672 18.77,-18.738 41.113,-28.113 67.063,-28.113 25.925,0 48.464,9.465 67.625,28.406 6.406,6.196 11.698,12.957 15.838,20.286 l -43.71,19.457 c -2.968,-14.704 -16.074,-24.637 -31.914,-25.801 v -17.875 h -13.32 v 17.875 c -13.008,0.148 -25.586,5.469 -35.195,13.883 l 15.957,16.105 c 7.695,-7.242 15.398,-10.488 25.898,-10.488 6.797,0 14.348,2.66 14.348,11.527 0,3.141 -1.223,5.32 -3.137,6.961 l -11.054,4.93 -13.77,6.121 c -6.809,3.039 -12.566,5.598 -18.359,8.18 z m 90.032,63.929 c -26.321,0 -48.579,-9.269 -66.77,-27.832 -4.949,-4.996 -9.258,-10.215 -12.918,-15.656 l 44.344,-19.742 c 3.996,12.301 15.683,19.766 29.863,20.59 v 17.875 h 13.32 v -17.875 c 9.168,-0.446 19.219,-2.957 29.129,-10.633 l -15.23,-15.66 c -5.617,3.984 -12.715,6.793 -19.817,6.793 -5.761,0 -13.906,-1.77 -13.906,-9 0,-1.114 0.371,-2.086 1.047,-2.946 l 14.832,-6.601 10.027,-4.473 c 6.418,-2.867 12.551,-5.586 18.625,-8.293 l 59.417,-26.449 c 1.97,7.777 2.95,16.055 2.95,24.82 0,26.485 -9.29,48.891 -27.867,67.25 -18.386,18.563 -40.742,27.832 -67.046,27.832" /><path
         id="path34"
         style="fill:#ffffff;fill-opacity:1;fill-rule:nonzero;stroke:none"
         d="m 638.594,380.215 c 59.316,0 107.39,-48.074 107.39,-107.383 0,-59.309 -48.074,-107.383 -107.39,-107.383 -59.305,0 -107.387,48.074 -107.387,107.383 0,59.309 48.082,107.383 107.387,107.383" /><path
         id="path36"
         style="fill:#231f20;fill-opacity:1;fill-rule:nonzero;stroke:none"
         d="m 669.68,303.895 c 0,4.144 -3.364,7.496 -7.492,7.496 h -47.43 c -4.133,0 -7.492,-3.352 -7.492,-7.496 v -47.426 h 13.222 v -56.156 h 35.957 v 56.156 h 13.235 v 47.426 0" /><path
         id="path38"
         style="fill:#231f20;fill-opacity:1;fill-rule:nonzero;stroke:none"
         d="m 638.477,350.078 c 8.957,0 16.211,-7.265 16.211,-16.223 0,-8.957 -7.254,-16.218 -16.211,-16.218 -8.965,0 -16.231,7.261 -16.231,16.218 0,8.958 7.266,16.223 16.231,16.223" /><path
         id="path40"
         style="fill:#231f20;fill-opacity:1;fill-rule:nonzero;stroke:none"
         d="m 638.32,391.145 c -32.109,0 -59.312,-11.204 -81.562,-33.625 -22.836,-23.188 -34.246,-50.633 -34.246,-82.325 0,-31.687 11.41,-58.945 34.246,-81.75 22.836,-22.8 50.031,-34.195 81.562,-34.195 31.934,0 59.61,11.492 83.02,34.488 22.066,21.828 33.094,48.989 33.094,81.457 0,32.473 -11.219,59.907 -33.672,82.325 -22.442,22.421 -49.922,33.625 -82.442,33.625 z m 0.293,-20.868 c 26.321,0 48.672,-9.281 67.051,-27.832 18.586,-18.359 27.871,-40.773 27.871,-67.25 0,-26.672 -9.094,-48.8 -27.285,-66.386 -19.16,-18.934 -41.699,-28.399 -67.637,-28.399 -25.937,0 -48.281,9.375 -67.047,28.113 -18.777,18.747 -28.16,40.969 -28.16,66.672 0,25.703 9.485,48.121 28.446,67.25 18.191,18.551 40.453,27.832 66.761,27.832" /></g></g></svg>