<?xml version="1.0" encoding="UTF-8" standalone="no"?>
<svg
   xmlns:dc="http://purl.org/dc/elements/1.1/"
   xmlns:cc="http://creativecommons.org/ns#"
   xmlns:rdf="http://www.w3.org/1999/02/22-rdf-syntax-ns#"
   xmlns:svg="http://www.w3.org/2000/svg"
   xmlns="http://www.w3.org/2000/svg"
   viewBox="0 0 161.33333 57.333332"
   height="57.333332"
   width="161.33333"
   xml:space="preserve"
   id="svg2"
   version="1.1"><metadata
     id="metadata8"><rdf:RDF><cc:Work
         rdf:about=""><dc:format>image/svg+xml</dc:format><dc:type
           rdf:resource="http://purl.org/dc/dcmitype/StillImage" /></cc:Work></rdf:RDF></metadata><defs
     id="defs6" /><g
     transform="matrix(1.3333333,0,0,-1.3333333,0,57.333333)"
     id="g10"><g
       transform="scale(0.1)"
       id="g12"><path
         id="path14"
         style="fill:#acb9b9;fill-opacity:1;fill-rule:nonzero;stroke:none"
         d="M 39.0781,420.637 1172.62,418.613 c 15.84,0 30,2.348 30,-31.601 L 1201.23,13.7305 H 10.4727 V 388.398 c 0,16.739 1.6211,32.239 28.6054,32.239" /><path
         id="path16"
         style="fill:#ffffff;fill-opacity:1;fill-rule:nonzero;stroke:none"
         d="M 350.219,229.645 C 350.27,154.355 289.258,93.2813 213.957,93.2227 138.656,93.1836 77.5664,154.18 77.5234,229.477 c 0,0.058 0,0.109 0,0.168 -0.0429,75.3 60.9686,136.367 136.2656,136.414 75.313,0.039 136.391,-60.961 136.43,-136.25 0,-0.059 0,-0.106 0,-0.164" /><path
         id="path18"
         style="fill:#231f20;fill-opacity:1;fill-rule:nonzero;stroke:none"
         d="m 324.711,340.684 c 30.238,-30.223 45.355,-67.246 45.355,-111.039 0,-43.805 -14.855,-80.426 -44.574,-109.887 C 293.961,88.75 256.684,73.2422 213.684,73.2422 c -42.493,0 -79.118,15.3711 -109.875,46.1328 -30.7582,30.762 -46.1332,67.52 -46.1332,110.27 0,42.742 15.375,79.765 46.1332,111.039 29.976,30.25 66.601,45.367 109.875,45.367 43.789,0 80.793,-15.117 111.027,-45.367 z M 124.164,320.352 C 98.6055,294.531 85.8242,264.289 85.8242,229.605 c 0,-34.683 12.6524,-64.664 37.9488,-89.964 25.297,-25.286 55.422,-37.942 90.368,-37.942 34.945,0 65.324,12.774 91.14,38.328 24.52,23.743 36.782,53.586 36.782,89.578 0,35.715 -12.461,66.036 -37.372,90.942 -24.902,24.891 -55.082,37.351 -90.55,37.351 -35.469,0 -65.465,-12.515 -89.977,-37.546 z m 67.274,-75.493 c -3.911,8.52 -9.758,12.77 -17.551,12.77 -13.789,0 -20.68,-9.277 -20.68,-27.828 0,-18.551 6.891,-27.828 20.68,-27.828 9.101,0 15.605,4.511 19.504,13.554 L 212.5,205.371 c -9.105,-16.183 -22.773,-24.285 -40.992,-24.285 -14.051,0 -25.313,4.305 -33.762,12.918 -8.469,8.625 -12.691,20.508 -12.691,35.641 0,14.875 4.359,26.683 13.074,35.437 8.723,8.742 19.582,13.109 32.601,13.109 19.258,0 33.047,-7.578 41.391,-22.746 z m 89.902,0 c -3.914,8.52 -9.645,12.77 -17.199,12.77 -14.063,0 -21.098,-9.277 -21.098,-27.828 0,-18.551 7.035,-27.828 21.098,-27.828 9.117,0 15.504,4.511 19.144,13.554 l 19.535,-10.156 c -9.09,-16.183 -22.738,-24.285 -40.922,-24.285 -14.031,0 -25.265,4.305 -33.714,12.918 -8.434,8.625 -12.661,20.508 -12.661,35.641 0,14.875 4.29,26.683 12.868,35.437 8.566,8.742 19.476,13.109 32.734,13.109 19.223,0 32.992,-7.578 41.301,-22.746 L 281.34,244.859" /><path
         id="path20"
         style="fill:#ffffff;fill-opacity:1;fill-rule:nonzero;stroke:none"
         d="m 638.594,380.605 c 59.316,0 107.39,-48.078 107.39,-107.382 0,-59.305 -48.074,-107.383 -107.39,-107.383 -59.305,0 -107.387,48.078 -107.387,107.383 0,59.304 48.082,107.382 107.387,107.382" /><path
         id="path22"
         style="fill:#231f20;fill-opacity:1;fill-rule:nonzero;stroke:none"
         d="m 669.68,304.297 c 0,4.141 -3.364,7.492 -7.492,7.492 h -47.43 c -4.133,0 -7.492,-3.351 -7.492,-7.492 v -47.422 h 13.222 v -56.172 h 35.957 v 56.172 h 13.235 v 47.422 0" /><path
         id="path24"
         style="fill:#231f20;fill-opacity:1;fill-rule:nonzero;stroke:none"
         d="m 638.477,350.469 c 8.957,0 16.211,-7.262 16.211,-16.219 0,-8.957 -7.254,-16.219 -16.211,-16.219 -8.965,0 -16.231,7.262 -16.231,16.219 0,8.957 7.266,16.219 16.231,16.219" /><path
         id="path26"
         style="fill:#231f20;fill-opacity:1;fill-rule:nonzero;stroke:none"
         d="m 638.32,391.531 c -32.109,0 -59.312,-11.199 -81.562,-33.621 -22.836,-23.183 -34.246,-50.637 -34.246,-82.32 0,-31.684 11.41,-58.942 34.246,-81.742 22.836,-22.813 50.031,-34.207 81.562,-34.207 31.934,0 59.61,11.492 83.02,34.5 22.066,21.836 33.094,48.98 33.094,81.449 0,32.473 -11.219,59.902 -33.672,82.32 -22.442,22.422 -49.922,33.621 -82.442,33.621 z m 0.293,-20.863 c 26.321,0 48.672,-9.277 67.051,-27.832 18.586,-18.348 27.871,-40.773 27.871,-67.246 0,-26.664 -9.094,-48.797 -27.285,-66.379 -19.16,-18.938 -41.699,-28.41 -67.637,-28.41 -25.937,0 -48.281,9.375 -67.047,28.117 -18.777,18.75 -28.16,40.965 -28.16,66.672 0,25.711 9.485,48.121 28.446,67.246 18.191,18.555 40.453,27.832 66.761,27.832" /><path
         id="path28"
         style="fill:#231f20;fill-opacity:1;fill-rule:nonzero;stroke:none"
         d="M 1182.54,425 H 27.4727 C 15.082,425 5,414.918 5,402.535 V 10.0781 C 5,7.26563 7.27344,5 10.0742,5 H 1199.92 c 2.81,0 5.08,2.26563 5.08,5.0781 V 402.535 C 1205,414.918 1194.92,425 1182.54,425 Z M 27.4727,414.848 H 1182.54 c 6.78,0 12.3,-5.524 12.3,-12.313 0,0 0,-157.824 0,-272.055 H 369.277 C 339.02,75.7695 280.723,38.625 213.813,38.625 146.879,38.625 88.5977,75.7422 58.3555,130.48 H 15.1523 c 0,114.231 0,272.055 0,272.055 0,6.789 5.5274,12.313 12.3204,12.313" /><path
         id="path30"
         style="fill:#ffffff;fill-opacity:1;fill-rule:nonzero;stroke:none"
         d="m 604.961,97.5195 c 3.164,0 6.035,-0.2734 8.644,-0.832 2.606,-0.5547 4.833,-1.4609 6.688,-2.7305 1.855,-1.2617 3.301,-2.9492 4.328,-5.0507 1.016,-2.1094 1.531,-4.6875 1.531,-7.793 0,-3.3399 -0.761,-6.1133 -2.285,-8.3399 -1.504,-2.2265 -3.762,-4.0429 -6.738,-5.4687 4.101,-1.1719 7.16,-3.2227 9.18,-6.1719 2.011,-2.9297 3.027,-6.4844 3.027,-10.625 0,-3.3398 -0.645,-6.2305 -1.953,-8.6719 -1.297,-2.4414 -3.059,-4.4336 -5.254,-5.9765 -2.195,-1.5508 -4.707,-2.6953 -7.52,-3.4375 -2.832,-0.7422 -5.722,-1.1133 -8.703,-1.1133 h -32.16 v 66.2109 h 31.215 z m -1.856,-26.7773 c 2.598,0 4.739,0.6133 6.407,1.8555 1.679,1.2304 2.508,3.2343 2.508,6.0078 0,1.539 -0.282,2.8008 -0.829,3.7968 -0.566,0.9883 -1.308,1.7579 -2.234,2.3047 -0.93,0.5664 -2.004,0.9375 -3.203,1.1641 -1.203,0.2148 -2.461,0.3203 -3.762,0.3203 H 588.34 V 70.7422 Z m 0.852,-28.1055 c 1.426,0 2.781,0.1367 4.09,0.4219 1.289,0.2812 2.453,0.7422 3.437,1.3828 0.996,0.6563 1.778,1.5352 2.371,2.6484 0.598,1.1133 0.879,2.5313 0.879,4.2657 0,3.3906 -0.957,5.8242 -2.879,7.2695 -1.914,1.4531 -4.453,2.1758 -7.617,2.1758 H 588.34 V 42.6367 h 15.617 v 0" /><path
         id="path32"
         style="fill:#ffffff;fill-opacity:1;fill-rule:nonzero;stroke:none"
         d="m 631.902,97.5195 h 16.34 l 15.508,-26.1406 15.41,26.1406 h 16.231 L 670.82,56.7188 V 31.3086 h -14.609 v 25.7812 l -24.309,40.4297" /><path
         id="path34"
         style="fill:#ffffff;fill-opacity:1;fill-rule:nonzero;stroke:none"
         d="m 864.336,97.5195 27.656,-44.414 h 0.156 v 44.414 H 905.82 V 31.3086 h -14.57 l -27.559,44.3359 h -0.183 V 31.3086 h -13.664 v 66.2109 h 14.492" /><path
         id="path36"
         style="fill:#ffffff;fill-opacity:1;fill-rule:nonzero;stroke:none"
         d="m 947.18,97.5195 c 4.285,0 8.25,-0.6718 11.941,-2.0312 3.684,-1.3672 6.863,-3.4063 9.57,-6.125 2.676,-2.7149 4.786,-6.1211 6.309,-10.2031 1.523,-4.0821 2.273,-8.8672 2.273,-14.375 0,-4.8243 -0.613,-9.2774 -1.851,-13.3477 -1.242,-4.0937 -3.117,-7.6094 -5.617,-10.5781 -2.52,-2.9688 -5.645,-5.3008 -9.395,-7.0039 -3.738,-1.7071 -8.144,-2.5469 -13.23,-2.5469 h -28.606 v 66.2109 h 28.606 z m -1.016,-53.9453 c 2.098,0 4.141,0.3321 6.121,1.0156 1.973,0.6836 3.75,1.8047 5.293,3.379 1.543,1.582 2.781,3.6328 3.711,6.164 0.918,2.5274 1.387,5.6133 1.387,9.2656 0,3.3399 -0.313,6.3477 -0.965,9.0352 -0.656,2.6836 -1.723,4.9883 -3.203,6.9023 -1.488,1.9141 -3.449,3.3789 -5.891,4.3946 -2.441,1.0156 -5.469,1.5234 -9.043,1.5234 H 933.176 V 43.5742 h 12.988 v 0" /><path
         id="path38"
         style="fill:#ffffff;fill-opacity:1;fill-rule:nonzero;stroke:none"
         d="m 1029.94,275.195 c 0.04,-58.445 -47.323,-105.871 -105.78,-105.918 -58.457,-0.027 -105.879,47.305 -105.93,105.774 0,0.047 0,0.105 0,0.144 -0.039,58.453 47.317,105.864 105.786,105.914 58.464,0.047 105.874,-47.304 105.924,-105.761 0,-0.051 0,-0.098 0,-0.153" /><path
         id="path40"
         style="fill:#231f20;fill-opacity:1;fill-rule:nonzero;stroke:none"
         d="m 922.434,391.145 c -32.141,0 -59.321,-11.2 -81.575,-33.618 -22.832,-23.191 -34.238,-50.632 -34.238,-82.332 0,-31.695 11.406,-58.933 34.238,-81.75 22.832,-22.8 50.02,-34.207 81.575,-34.207 31.921,0 59.597,11.516 83.016,34.5 22.05,21.848 33.09,48.996 33.09,81.457 0,32.477 -11.23,59.907 -33.68,82.332 -22.438,22.418 -49.926,33.618 -82.426,33.618 z m 0.293,-20.856 c 26.304,0 48.66,-9.281 67.046,-27.848 18.577,-18.347 27.867,-40.757 27.867,-67.246 0,-26.672 -9.09,-48.793 -27.288,-66.379 -19.161,-18.933 -41.707,-28.406 -67.625,-28.406 -25.95,0 -48.293,9.375 -67.063,28.125 -18.769,18.738 -28.152,40.961 -28.152,66.66 0,25.711 9.48,48.121 28.445,67.246 18.191,18.567 40.449,27.848 66.77,27.848" /><path
         id="path42"
         style="fill:#231f20;fill-opacity:1;fill-rule:nonzero;stroke:none"
         d="M 966.395,302.676 H 882.09 v -19.961 h 84.305 z m 0,-37.266 H 882.09 v -19.961 h 84.305 v 19.961" /></g></g></svg>