<?xml version="1.0" encoding="UTF-8" standalone="no"?>
<svg
   xmlns:dc="http://purl.org/dc/elements/1.1/"
   xmlns:cc="http://creativecommons.org/ns#"
   xmlns:rdf="http://www.w3.org/1999/02/22-rdf-syntax-ns#"
   xmlns:svg="http://www.w3.org/2000/svg"
   xmlns="http://www.w3.org/2000/svg"
   viewBox="0 0 161.33333 57.333332"
   height="57.333332"
   width="161.33333"
   xml:space="preserve"
   id="svg2"
   version="1.1"><metadata
     id="metadata8"><rdf:RDF><cc:Work
         rdf:about=""><dc:format>image/svg+xml</dc:format><dc:type
           rdf:resource="http://purl.org/dc/dcmitype/StillImage" /></cc:Work></rdf:RDF></metadata><defs
     id="defs6" /><g
     transform="matrix(1.3333333,0,0,-1.3333333,0,57.333333)"
     id="g10"><g
       transform="scale(0.1)"
       id="g12"><path
         id="path14"
         style="fill:#acb9b9;fill-opacity:1;fill-rule:nonzero;stroke:none"
         d="M 39.0781,420.234 1172.62,418.219 c 15.84,0 30,2.351 30,-31.602 L 1201.23,13.3203 H 10.4727 V 388.004 c 0,16.738 1.6211,32.23 28.6054,32.23" /><path
         id="path16"
         style="fill:#ffffff;fill-opacity:1;fill-rule:nonzero;stroke:none"
         d="M 350.227,229.242 C 350.27,153.957 289.258,92.8828 213.957,92.832 138.656,92.7813 77.5664,153.789 77.5234,229.082 c 0,0.059 0,0.106 0,0.16 -0.0429,75.305 60.9686,136.371 136.2656,136.418 75.313,0.047 136.391,-60.957 136.438,-136.25 0,-0.051 0,-0.109 0,-0.168" /><path
         id="path18"
         style="fill:#231f20;fill-opacity:1;fill-rule:nonzero;stroke:none"
         d="m 324.711,340.293 c 30.234,-30.234 45.355,-67.254 45.355,-111.043 0,-43.801 -14.855,-80.422 -44.574,-109.875 -31.531,-31.0352 -68.808,-46.5312 -111.816,-46.5312 -42.485,0 -79.11,15.371 -109.867,46.1402 -30.7582,30.75 -46.1371,67.5 -46.1371,110.266 0,42.746 15.3789,79.766 46.1371,111.043 29.976,30.246 66.601,45.355 109.867,45.355 43.797,0 80.801,-15.109 111.035,-45.355 z M 124.164,319.957 C 98.6055,294.141 85.8242,263.895 85.8242,229.211 c 0,-34.68 12.6524,-64.668 37.9488,-89.953 25.297,-25.301 55.422,-37.949 90.368,-37.949 34.945,0 65.324,12.773 91.14,38.332 24.52,23.73 36.782,53.574 36.782,89.57 0,35.715 -12.461,66.027 -37.372,90.941 -24.902,24.899 -55.082,37.352 -90.55,37.352 -35.469,0 -65.465,-12.52 -89.977,-37.547 z m 67.274,-75.488 c -3.911,8.511 -9.754,12.765 -17.551,12.765 -13.789,0 -20.68,-9.273 -20.68,-27.832 0,-18.55 6.891,-27.832 20.68,-27.832 9.101,0 15.605,4.524 19.504,13.575 L 212.5,204.973 c -9.105,-16.184 -22.773,-24.282 -40.992,-24.282 -14.051,0 -25.313,4.309 -33.762,12.922 -8.469,8.614 -12.691,20.489 -12.691,35.637 0,14.875 4.355,26.688 13.074,35.434 8.723,8.746 19.582,13.121 32.601,13.121 19.258,0 33.047,-7.59 41.383,-22.75 z m 89.902,0 c -3.914,8.511 -9.645,12.765 -17.199,12.765 -14.063,0 -21.098,-9.273 -21.098,-27.832 0,-18.55 7.035,-27.832 21.098,-27.832 9.117,0 15.504,4.524 19.144,13.575 l 19.535,-10.172 c -9.09,-16.184 -22.738,-24.282 -40.922,-24.282 -14.031,0 -25.265,4.309 -33.714,12.922 -8.434,8.614 -12.661,20.489 -12.661,35.637 0,14.875 4.29,26.688 12.868,35.434 8.566,8.746 19.476,13.121 32.734,13.121 19.223,0 32.992,-7.59 41.301,-22.75 L 281.34,244.469" /><path
         id="path20"
         style="fill:#231f20;fill-opacity:1;fill-rule:nonzero;stroke:none"
         d="M 1182.54,425 H 27.4648 C 15.0781,425 5,414.918 5,402.527 V 10.0781 C 5,7.27344 7.26953,5 10.0664,5 H 1199.92 c 2.81,0 5.08,2.27344 5.08,5.0781 V 402.527 C 1205,414.918 1194.92,425 1182.54,425 Z M 27.4648,414.848 H 1182.54 c 6.78,0 12.3,-5.528 12.3,-12.321 0,0 0,-158.179 0,-272.449 H 369.277 C 339.02,75.3711 280.723,38.2305 213.813,38.2305 146.879,38.2305 88.5977,75.3438 58.3555,130.078 H 15.1406 c 0,114.27 0,272.449 0,272.449 0,6.793 5.5352,12.321 12.3242,12.321" /><path
         id="path22"
         style="fill:#ffffff;fill-opacity:1;fill-rule:nonzero;stroke:none"
         d="m 867.637,47.6758 c 0.801,-1.543 1.867,-2.793 3.195,-3.7578 1.336,-0.9571 2.879,-1.6719 4.668,-2.1289 1.797,-0.4727 3.648,-0.6953 5.555,-0.6953 1.3,0 2.683,0.0976 4.172,0.3242 1.472,0.2031 2.859,0.6328 4.16,1.25 1.297,0.6133 2.371,1.4726 3.23,2.5468 0.879,1.086 1.309,2.461 1.309,4.1329 0,1.7851 -0.586,3.2421 -1.719,4.3515 -1.144,1.125 -2.644,2.043 -4.492,2.7852 -1.856,0.7422 -3.953,1.3867 -6.289,1.9531 -2.356,0.5586 -4.727,1.1719 -7.137,1.8555 -2.473,0.6133 -4.887,1.3672 -7.238,2.2656 -2.332,0.8984 -4.434,2.0625 -6.289,3.4766 -1.856,1.4257 -3.348,3.2031 -4.492,5.332 -1.141,2.1484 -1.719,4.7266 -1.719,7.7539 0,3.3984 0.73,6.3477 2.179,8.8594 1.454,2.5 3.36,4.5859 5.711,6.2578 2.332,1.668 5,2.9101 7.969,3.7109 2.949,0.8008 5.918,1.211 8.887,1.211 3.457,0 6.777,-0.3907 9.961,-1.1719 3.183,-0.7617 6.015,-2.0313 8.476,-3.7578 2.481,-1.7305 4.434,-3.9375 5.891,-6.6328 1.441,-2.6954 2.176,-5.9571 2.176,-9.793 h -14.129 c -0.129,1.9805 -0.547,3.6211 -1.242,4.9101 -0.711,1.3086 -1.66,2.3243 -2.813,3.0665 -1.179,0.7421 -2.519,1.2695 -4.023,1.5742 -1.512,0.3125 -3.156,0.4648 -4.942,0.4648 -1.164,0 -2.343,-0.125 -3.496,-0.3711 -1.179,-0.2422 -2.234,-0.6797 -3.183,-1.2969 -0.965,-0.625 -1.758,-1.3867 -2.364,-2.3242 -0.605,-0.9297 -0.918,-2.0976 -0.918,-3.5156 0,-1.3086 0.235,-2.3633 0.735,-3.1641 0.496,-0.8007 1.472,-1.5429 2.918,-2.2265 1.445,-0.6719 3.457,-1.3594 6.015,-2.0391 2.559,-0.6758 5.918,-1.5547 10.059,-2.5898 1.23,-0.2539 2.937,-0.7032 5.137,-1.3555 2.187,-0.6562 4.367,-1.6797 6.523,-3.0977 2.168,-1.4375 4.031,-3.3398 5.613,-5.7109 1.575,-2.3828 2.356,-5.4336 2.356,-9.1445 0,-3.0352 -0.586,-5.8477 -1.758,-8.4453 -1.184,-2.5977 -2.93,-4.8438 -5.242,-6.7188 -2.317,-1.8945 -5.195,-3.3594 -8.625,-4.414 -3.438,-1.0547 -7.41,-1.5704 -11.914,-1.5704 -3.653,0 -7.188,0.4454 -10.625,1.3477 -3.426,0.8984 -6.465,2.3125 -9.102,4.2266 -2.617,1.9257 -4.707,4.375 -6.25,7.3437 -1.543,2.9688 -2.285,6.4961 -2.226,10.5859 h 14.133 c 0,-2.2265 0.398,-4.121 1.199,-5.664" /><path
         id="path24"
         style="fill:#ffffff;fill-opacity:1;fill-rule:nonzero;stroke:none"
         d="m 949.688,97.5195 24.785,-66.2109 h -15.137 l -5,14.7461 h -24.785 l -5.188,-14.7461 h -14.656 l 25.051,66.2109 z m 0.839,-40.5937 -8.339,24.2734 h -0.196 l -8.633,-24.2734 h 17.168" /><path
         id="path26"
         style="fill:#ffffff;fill-opacity:1;fill-rule:nonzero;stroke:none"
         d="m 604.961,97.5195 c 3.164,0 6.035,-0.2734 8.644,-0.832 2.606,-0.5547 4.833,-1.4727 6.688,-2.7305 1.855,-1.2617 3.301,-2.9492 4.328,-5.0507 1.024,-2.1094 1.531,-4.6954 1.531,-7.793 0,-3.3399 -0.761,-6.1133 -2.285,-8.3399 -1.504,-2.2265 -3.762,-4.0429 -6.738,-5.4687 4.101,-1.1719 7.16,-3.2227 9.18,-6.1719 2.011,-2.9297 3.027,-6.4844 3.027,-10.625 0,-3.3398 -0.645,-6.2305 -1.953,-8.6719 -1.297,-2.4414 -3.059,-4.4336 -5.254,-5.9765 -2.195,-1.5508 -4.707,-2.6953 -7.52,-3.4375 -2.832,-0.7422 -5.722,-1.1133 -8.703,-1.1133 h -32.16 v 66.2109 h 31.215 z m -1.856,-26.7773 c 2.598,0 4.727,0.6133 6.407,1.8555 1.679,1.2304 2.508,3.2343 2.508,6.0078 0,1.539 -0.282,2.8008 -0.829,3.7968 -0.566,0.9883 -1.308,1.7579 -2.234,2.3047 -0.93,0.5586 -2.004,0.9453 -3.203,1.1641 -1.211,0.2148 -2.473,0.3203 -3.762,0.3203 H 588.34 V 70.7422 Z m 0.852,-28.1055 c 1.426,0 2.781,0.1367 4.09,0.4219 1.289,0.2812 2.453,0.7422 3.437,1.3828 0.996,0.6563 1.778,1.5352 2.371,2.6484 0.598,1.1133 0.879,2.5391 0.879,4.2657 0,3.3906 -0.957,5.8242 -2.879,7.2773 -1.914,1.4453 -4.46,2.168 -7.617,2.168 H 588.34 V 42.6367 h 15.617" /><path
         id="path28"
         style="fill:#ffffff;fill-opacity:1;fill-rule:nonzero;stroke:none"
         d="m 631.902,97.5195 h 16.34 l 15.508,-26.1523 15.41,26.1523 h 16.231 L 670.82,56.7188 V 31.3086 h -14.609 v 25.7812 l -24.309,40.4297" /><path
         id="path30"
         style="fill:#ffffff;fill-opacity:1;fill-rule:nonzero;stroke:none"
         d="m 1029.03,275.191 c 0.03,-58.453 -47.311,-105.875 -105.768,-105.914 -58.457,-0.039 -105.879,47.305 -105.938,105.762 0,0.051 0,0.106 0,0.152 -0.039,58.457 47.324,105.868 105.781,105.918 58.458,0.043 105.895,-47.308 105.925,-105.761 0,-0.059 0,-0.102 0,-0.157" /><path
         id="path32"
         style="fill:#231f20;fill-opacity:1;fill-rule:nonzero;stroke:none"
         d="m 922.422,391.137 c -32.129,0 -59.309,-11.203 -81.563,-33.617 -22.832,-23.196 -34.238,-50.633 -34.238,-82.329 0,-31.691 11.406,-58.941 34.238,-81.746 22.832,-22.8 50.02,-34.207 81.563,-34.207 31.933,0 59.598,11.504 83.028,34.5 22.05,21.828 33.09,48.992 33.09,81.453 0,32.461 -11.24,59.911 -33.68,82.329 -22.458,22.414 -49.926,33.617 -82.438,33.617 z m 0.293,-20.867 c 26.316,0 48.672,-9.274 67.058,-27.825 18.567,-18.363 27.857,-40.773 27.857,-67.254 0,-26.668 -9.08,-48.796 -27.278,-66.382 -19.161,-18.934 -41.7,-28.399 -67.637,-28.399 -25.938,0 -48.281,9.375 -67.051,28.106 -18.769,18.754 -28.152,40.972 -28.152,66.675 0,25.704 9.48,48.122 28.445,67.254 18.184,18.551 40.438,27.825 66.758,27.825" /><path
         id="path34"
         style="fill:#231f20;fill-opacity:1;fill-rule:nonzero;stroke:none"
         d="m 871.023,291.559 c 4.622,29.171 25.168,44.769 50.911,44.769 37.011,0 59.57,-26.859 59.57,-62.68 0,-34.949 -24.004,-62.105 -60.156,-62.105 -24.883,0 -47.137,15.312 -51.192,45.348 h 29.207 c 0.871,-15.59 10.996,-21.078 25.461,-21.078 16.477,0 27.188,15.304 27.188,38.703 0,24.547 -9.258,37.547 -26.621,37.547 -12.715,0 -23.711,-4.625 -26.028,-20.504 l 8.508,0.043 -23.008,-22.989 -22.988,22.989 9.148,-0.043" /><path
         id="path36"
         style="fill:#ffffff;fill-opacity:1;fill-rule:nonzero;stroke:none"
         d="m 638.594,380.211 c 59.316,0 107.39,-48.078 107.39,-107.379 0,-59.309 -48.074,-107.383 -107.39,-107.383 -59.305,0 -107.387,48.074 -107.387,107.383 0,59.301 48.082,107.379 107.387,107.379" /><path
         id="path38"
         style="fill:#231f20;fill-opacity:1;fill-rule:nonzero;stroke:none"
         d="m 669.68,303.902 c 0,4.137 -3.364,7.485 -7.492,7.485 h -47.43 c -4.133,0 -7.492,-3.344 -7.492,-7.485 v -47.425 h 13.222 v -56.164 h 35.957 v 56.164 h 13.235 v 47.425 0" /><path
         id="path40"
         style="fill:#231f20;fill-opacity:1;fill-rule:nonzero;stroke:none"
         d="m 638.477,350.078 c 8.957,0 16.211,-7.265 16.211,-16.223 0,-8.957 -7.254,-16.218 -16.211,-16.218 -8.965,0 -16.231,7.261 -16.231,16.218 0,8.958 7.266,16.223 16.231,16.223" /><path
         id="path42"
         style="fill:#231f20;fill-opacity:1;fill-rule:nonzero;stroke:none"
         d="m 638.32,391.137 c -32.109,0 -59.312,-11.199 -81.562,-33.621 -22.836,-23.184 -34.246,-50.629 -34.246,-82.321 0,-31.683 11.41,-58.945 34.246,-81.75 22.836,-22.8 50.031,-34.195 81.562,-34.195 31.934,0 59.61,11.492 83.02,34.5 22.066,21.816 33.094,48.98 33.094,81.445 0,32.473 -11.219,59.907 -33.672,82.321 -22.442,22.422 -49.922,33.621 -82.442,33.621 z m 0.293,-20.864 c 26.321,0 48.672,-9.277 67.051,-27.828 18.586,-18.351 27.871,-40.773 27.871,-67.25 0,-26.664 -9.094,-48.8 -27.285,-66.386 -19.16,-18.926 -41.699,-28.399 -67.637,-28.399 -25.937,0 -48.281,9.375 -67.047,28.113 -18.777,18.747 -28.16,40.969 -28.16,66.672 0,25.703 9.485,48.121 28.446,67.25 18.191,18.551 40.453,27.828 66.761,27.828" /></g></g></svg>