<?xml version="1.0" encoding="UTF-8" standalone="no"?>
<svg
   xmlns:dc="http://purl.org/dc/elements/1.1/"
   xmlns:cc="http://creativecommons.org/ns#"
   xmlns:rdf="http://www.w3.org/1999/02/22-rdf-syntax-ns#"
   xmlns:svg="http://www.w3.org/2000/svg"
   xmlns="http://www.w3.org/2000/svg"
   viewBox="0 0 161.33333 57.333332"
   height="57.333332"
   width="161.33333"
   xml:space="preserve"
   id="svg2"
   version="1.1"><metadata
     id="metadata8"><rdf:RDF><cc:Work
         rdf:about=""><dc:format>image/svg+xml</dc:format><dc:type
           rdf:resource="http://purl.org/dc/dcmitype/StillImage" /></cc:Work></rdf:RDF></metadata><defs
     id="defs6" /><g
     transform="matrix(1.3333333,0,0,-1.3333333,0,57.333333)"
     id="g10"><g
       transform="scale(0.1)"
       id="g12"><path
         id="path14"
         style="fill:#acb9b9;fill-opacity:1;fill-rule:nonzero;stroke:none"
         d="M 36.4023,419.926 1169.94,417.91 c 15.84,0 29.98,2.348 29.98,-31.601 L 1198.54,13.0195 H 7.79297 V 387.695 c 0,16.743 1.62109,32.231 28.60933,32.231" /><path
         id="path16"
         style="fill:#231f20;fill-opacity:1;fill-rule:nonzero;stroke:none"
         d="M 1182.52,425 H 27.4727 C 15.082,425 5,414.922 5,402.535 V 10.0664 C 5,7.26563 7.27344,5 10.0742,5 H 1199.92 c 2.81,0 5.08,2.26563 5.08,5.0664 V 402.535 C 1205,414.922 1194.92,425 1182.52,425 Z M 27.4727,414.848 H 1182.52 c 6.8,0 12.32,-5.524 12.32,-12.313 0,0 0,-158.472 0,-272.762 H 366.598 C 336.34,75.0664 278.043,37.9219 211.133,37.9219 144.199,37.9219 85.918,75.0391 55.6758,129.773 H 15.1523 c 0,114.29 0,272.762 0,272.762 0,6.789 5.5274,12.313 12.3204,12.313" /><path
         id="path18"
         style="fill:#ffffff;fill-opacity:1;fill-rule:nonzero;stroke:none"
         d="m 743.086,97.5195 c 3.164,0 6.035,-0.2734 8.652,-0.832 2.598,-0.5547 4.825,-1.4609 6.68,-2.7305 1.855,-1.2617 3.301,-2.9492 4.328,-5.0507 1.016,-2.1094 1.531,-4.6875 1.531,-7.793 0,-3.3399 -0.761,-6.1133 -2.285,-8.332 -1.512,-2.2344 -3.769,-4.0508 -6.738,-5.4766 4.101,-1.1719 7.16,-3.2227 9.18,-6.1719 2.011,-2.9297 3.027,-6.4844 3.027,-10.625 0,-3.3398 -0.652,-6.2305 -1.953,-8.6719 -1.297,-2.4414 -3.059,-4.4336 -5.254,-5.9765 -2.195,-1.5508 -4.707,-2.6953 -7.527,-3.4375 -2.825,-0.7422 -5.715,-1.1133 -8.696,-1.1133 h -32.156 v 66.2109 h 31.211 z M 741.23,70.7422 c 2.598,0 4.727,0.625 6.407,1.8555 1.679,1.2304 2.508,3.2343 2.508,6.0078 0,1.539 -0.282,2.8125 -0.829,3.7968 -0.566,0.9883 -1.308,1.7579 -2.234,2.3165 -0.93,0.5546 -2.004,0.9453 -3.203,1.1523 -1.203,0.2148 -2.473,0.3203 -3.762,0.3203 H 726.465 V 70.7422 Z m 0.852,-28.1055 c 1.426,0 2.781,0.1367 4.09,0.4219 1.289,0.2812 2.441,0.75 3.437,1.3828 0.996,0.6563 1.778,1.5352 2.364,2.6484 0.605,1.1133 0.886,2.5391 0.886,4.2657 0,3.3906 -0.964,5.8242 -2.879,7.2773 -1.921,1.4453 -4.46,2.168 -7.617,2.168 H 726.465 V 42.6367 h 15.617" /><path
         id="path20"
         style="fill:#ffffff;fill-opacity:1;fill-rule:nonzero;stroke:none"
         d="m 770.027,97.5195 h 16.34 l 15.508,-26.1523 15.41,26.1523 h 16.231 L 808.938,56.7188 V 31.3086 h -14.602 v 25.7812 l -24.309,40.4297" /><path
         id="path22"
         style="fill:#ffffff;fill-opacity:1;fill-rule:nonzero;stroke:none"
         d="M 347.539,228.941 C 347.59,153.645 286.578,92.5781 211.273,92.5195 135.977,92.4805 74.8867,153.477 74.8438,228.773 c 0,0.055 0,0.11 0,0.168 -0.043,75.297 60.9692,136.368 136.2652,136.411 75.313,0.046 136.387,-60.957 136.43,-136.25 0,-0.047 0,-0.106 0,-0.161" /><path
         id="path24"
         style="fill:#231f20;fill-opacity:1;fill-rule:nonzero;stroke:none"
         d="m 322.031,339.984 c 30.235,-30.234 45.356,-67.254 45.356,-111.043 0,-43.804 -14.86,-80.425 -44.574,-109.878 C 291.277,88.0391 254.004,72.5273 211,72.5273 c -42.488,0 -79.113,15.3829 -109.867,46.1447 -30.7619,30.754 -46.1369,67.512 -46.1369,110.269 0,42.747 15.375,79.766 46.1369,111.043 29.972,30.243 66.597,45.364 109.867,45.364 43.789,0 80.797,-15.121 111.031,-45.364 z M 121.484,319.648 C 95.9219,293.828 83.1484,263.59 83.1484,228.895 c 0,-34.676 12.6524,-64.665 37.9456,-89.95 25.301,-25.3 55.422,-37.949 90.367,-37.949 34.945,0 65.32,12.774 91.141,38.328 24.519,23.742 36.777,53.586 36.777,89.571 0,35.718 -12.461,66.043 -37.367,90.945 -24.903,24.902 -55.086,37.355 -90.551,37.355 -35.465,0 -65.465,-12.515 -89.977,-37.547 z m 67.27,-75.492 c -3.906,8.516 -9.75,12.774 -17.547,12.774 -13.789,0 -20.68,-9.285 -20.68,-27.836 0,-18.555 6.891,-27.824 20.68,-27.824 9.102,0 15.606,4.511 19.508,13.566 l 19.105,-10.18 c -9.105,-16.179 -22.773,-24.265 -40.992,-24.265 -14.055,0 -25.312,4.304 -33.765,12.91 -8.465,8.613 -12.688,20.5 -12.688,35.64 0,14.872 4.359,26.684 13.078,35.434 8.719,8.746 19.574,13.113 32.598,13.113 19.258,0 33.047,-7.586 41.387,-22.746 z m 89.902,0 c -3.91,8.516 -9.64,12.774 -17.195,12.774 -14.063,0 -21.102,-9.285 -21.102,-27.836 0,-18.555 7.039,-27.824 21.102,-27.824 9.113,0 15.504,4.511 19.144,13.566 l 19.536,-10.18 c -9.09,-16.179 -22.739,-24.265 -40.922,-24.265 -14.031,0 -25.27,4.304 -33.715,12.91 -8.434,8.613 -12.66,20.5 -12.66,35.64 0,14.872 4.289,26.684 12.863,35.434 8.57,8.746 19.481,13.113 32.734,13.113 19.227,0 32.997,-7.586 41.305,-22.746 l -21.09,-10.586" /><path
         id="path26"
         style="fill:#ffffff;fill-opacity:1;fill-rule:nonzero;stroke:none"
         d="m 767.676,380.215 c 59.304,0 107.383,-48.074 107.383,-107.383 0,-59.297 -48.079,-107.383 -107.383,-107.383 -59.317,0 -107.403,48.086 -107.403,107.383 0,59.309 48.086,107.383 107.403,107.383" /><path
         id="path28"
         style="fill:#231f20;fill-opacity:1;fill-rule:nonzero;stroke:none"
         d="m 798.75,303.902 c 0,4.141 -3.359,7.489 -7.48,7.489 h -47.442 c -4.121,0 -7.48,-3.348 -7.48,-7.489 v -47.425 h 13.222 v -56.164 h 35.95 v 56.164 h 13.23 v 47.425 0" /><path
         id="path30"
         style="fill:#231f20;fill-opacity:1;fill-rule:nonzero;stroke:none"
         d="m 767.539,350.082 c 8.965,0 16.231,-7.266 16.231,-16.227 0,-8.957 -7.266,-16.222 -16.231,-16.222 -8.953,0 -16.223,7.265 -16.223,16.222 0,8.961 7.27,16.227 16.223,16.227" /><path
         id="path32"
         style="fill:#231f20;fill-opacity:1;fill-rule:nonzero;stroke:none"
         d="m 767.402,391.145 c -32.129,0 -59.316,-11.207 -81.57,-33.625 -22.832,-23.188 -34.25,-50.633 -34.25,-82.325 0,-31.683 11.418,-58.945 34.25,-81.738 22.84,-22.805 50.027,-34.199 81.57,-34.199 31.934,0 59.61,11.484 83.008,34.492 22.07,21.824 33.106,48.98 33.106,81.445 0,32.473 -11.231,59.907 -33.672,82.325 -22.461,22.418 -49.93,33.625 -82.442,33.625 z m 0.293,-20.868 c 26.309,0 48.672,-9.281 67.051,-27.832 18.574,-18.351 27.852,-40.769 27.852,-67.25 0,-26.664 -9.082,-48.793 -27.278,-66.379 -19.168,-18.933 -41.695,-28.406 -67.625,-28.406 -25.945,0 -48.3,9.375 -67.05,28.113 -18.79,18.75 -28.165,40.973 -28.165,66.672 0,25.707 9.493,48.121 28.458,67.25 18.183,18.551 40.429,27.832 66.757,27.832" /></g></g></svg>